<?xml version="1.0" encoding="UTF-8" standalone="no"?>
<!DOCTYPE svg PUBLIC "-//W3C//DTD SVG 1.1//EN" "http://www.w3.org/Graphics/SVG/1.1/DTD/svg11.dtd">
<svg width="100%" height="100%" viewBox="0 0 40 20" version="1.1" xmlns="http://www.w3.org/2000/svg" xmlns:xlink="http://www.w3.org/1999/xlink" xml:space="preserve" xmlns:serif="http://www.serif.com/" style="fill-rule:evenodd;clip-rule:evenodd;stroke-linejoin:round;stroke-miterlimit:2;fill:white;">
    <g transform="matrix(1,0,0,1,-0.957136,0)">
        <path d="M36.708,12.616L38.114,12.616L37.857,13.952L36.449,13.952L36.708,12.616Z"/>
    </g>
    <g transform="matrix(1,0,0,1,-288.319,-399.504)">
        <path d="M294.751,413.457L296.286,405.552L301.958,405.552L301.7,406.888L297.757,406.888L297.388,408.787L291.419,408.787L291.161,410.123L297.13,410.123L296.737,412.121L300.921,412.121L300.663,413.457L294.751,413.457Z" style="fill-rule:nonzero;"/>
    </g>
    <g transform="matrix(1,0,0,1,-288.319,-399.504)">
        <path d="M305.814,413.457L306.47,410.093L304.343,410.093L303.687,413.457L301.958,413.457L303.493,405.552L305.222,405.552L304.618,408.664L306.745,408.664L307.349,405.552L309.077,405.552L307.542,413.457L305.814,413.457Z" style="fill-rule:nonzero;"/>
    </g>
    <g transform="matrix(1,0,0,1,-288.319,-399.504)">
        <path d="M313.595,413.457L312.482,410.439L311.468,410.439L310.882,413.457L309.153,413.457L310.689,405.552L313.583,405.552C314.482,405.552 315.153,405.706 315.599,406.012C316.044,406.319 316.267,406.763 316.267,407.345C316.267,407.619 316.223,407.903 316.135,408.198C316.047,408.493 315.911,408.763 315.728,409.009C315.544,409.255 315.316,409.469 315.042,409.651C314.769,409.833 314.474,409.966 314.157,410.052L315.54,413.457L313.595,413.457ZM314.486,407.697C314.486,407.4 314.369,407.192 314.137,407.073C313.904,406.954 313.573,406.894 313.144,406.894L312.159,406.894L311.732,409.097L312.763,409.097C313.747,409.097 314.312,408.72 314.456,407.966L314.486,407.697Z" style="fill-rule:nonzero;"/>
    </g>
    <g transform="matrix(1,0,0,1,-288.319,-399.504)">
        <path d="M316.355,413.457L317.89,405.552L323.562,405.552L323.304,406.888L319.361,406.888L318.991,408.787L322.577,408.787L322.32,410.123L318.734,410.123L318.341,412.121L322.525,412.121L322.267,413.457L316.355,413.457Z" style="fill-rule:nonzero;"/>
    </g>
</svg>
