<?xml version="1.0" standalone="no"?>
<!DOCTYPE svg PUBLIC "-//W3C//DTD SVG 20010904//EN"
 "http://www.w3.org/TR/2001/REC-SVG-20010904/DTD/svg10.dtd">
<svg version="1.0" xmlns="http://www.w3.org/2000/svg"
 width="1280.000000pt" height="1280.000000pt" viewBox="0 0 1280.000000 1280.000000"
 preserveAspectRatio="xMidYMid meet">
<metadata>
Created by potrace 1.14, written by Peter Selinger 2001-2017
</metadata>
<g transform="translate(0.000000,1280.000000) scale(0.100000,-0.100000)"
fill="#000000" stroke="none">
<path d="M2550 7663 c0 -1 -7 -33 -15 -72 -8 -39 -17 -85 -21 -103 -3 -18 -7
-37 -8 -43 -2 -5 -7 -32 -11 -60 -10 -56 -9 -50 -18 -90 -4 -16 -9 -41 -11
-55 -4 -25 -35 -191 -41 -220 -2 -8 -4 -15 -5 -15 -1 0 -3 -9 -5 -20 -10 -68
-21 -125 -29 -160 -2 -5 -7 -32 -11 -60 -5 -27 -10 -52 -10 -55 -1 -3 -5 -22
-9 -42 l-8 -38 -678 0 -678 0 -6 -32 c-3 -18 -8 -44 -11 -58 -3 -14 -8 -41
-11 -60 -3 -19 -9 -51 -14 -70 -5 -19 -12 -52 -16 -74 -7 -44 -11 -70 -19
-107 l-6 -26 676 0 c372 0 678 3 680 7 3 4 7 25 11 45 3 21 8 46 10 56 2 11 6
27 8 37 2 9 13 69 25 132 12 63 24 123 27 132 5 16 29 18 281 20 236 3 276 5
279 18 3 19 46 237 85 433 16 82 29 150 29 151 0 2 282 2 626 2 547 -1 627 1
634 14 4 8 11 33 15 55 5 22 9 45 10 50 2 9 6 30 21 115 3 14 6 34 8 45 2 11
4 20 5 20 1 0 4 14 7 30 7 51 9 60 17 72 4 6 2 15 -5 20 -11 6 -1808 13 -1808
6z"/>
<path d="M4854 7655 c-2 -5 -8 -35 -13 -65 -6 -30 -13 -66 -16 -80 -4 -22 -10
-51 -21 -115 -2 -11 -19 -99 -38 -195 -20 -96 -37 -186 -40 -200 -9 -55 -19
-106 -23 -125 -10 -43 -21 -102 -27 -135 -3 -19 -8 -46 -11 -60 -3 -14 -8 -36
-11 -50 -2 -14 -7 -38 -11 -55 -3 -16 -7 -37 -9 -45 -7 -49 -16 -98 -21 -115
-4 -11 -7 -29 -8 -40 -1 -11 -5 -33 -9 -50 -3 -16 -9 -43 -12 -60 -3 -16 -10
-50 -15 -75 -6 -25 -12 -60 -15 -79 -2 -18 -6 -37 -9 -41 -2 -4 -7 -32 -11
-61 -3 -30 -9 -58 -12 -63 -3 -5 -6 -19 -8 -30 -3 -29 -14 -88 -19 -106 -2 -8
-6 -33 -10 -55 -3 -22 -7 -47 -10 -55 -2 -8 -6 -26 -9 -40 -3 -14 -7 -34 -9
-45 -7 -29 -21 -108 -22 -120 -1 -5 -7 -35 -13 -65 -6 -30 -14 -67 -16 -83 -3
-15 -7 -35 -10 -45 -3 -9 -8 -31 -10 -47 -7 -49 -18 -110 -21 -115 -2 -3 122
-5 275 -5 l279 0 10 55 c6 30 13 66 15 80 3 14 15 75 26 135 12 61 24 121 26
135 9 45 12 64 23 115 6 28 13 61 15 75 3 14 5 25 6 25 1 0 3 9 4 20 2 11 9
47 15 80 7 33 14 69 15 80 2 11 7 36 10 55 4 19 8 42 10 50 5 25 18 94 23 115
2 11 5 25 7 32 1 7 5 15 8 18 4 5 454 8 651 5 24 0 27 -3 22 -20 -3 -11 -8
-32 -11 -47 -3 -16 -12 -64 -20 -108 -9 -44 -17 -89 -19 -100 -3 -16 -24 -123
-70 -350 -3 -16 -8 -41 -10 -55 -2 -14 -20 -106 -39 -204 -20 -98 -34 -182
-32 -185 3 -5 519 -7 549 -2 4 0 7 7 6 14 -2 6 0 26 4 42 4 17 9 41 11 55 3
14 8 39 11 55 3 17 21 111 41 210 19 99 37 191 39 205 3 14 8 40 11 59 3 18 8
43 10 55 3 11 7 32 10 46 4 22 10 54 29 150 3 14 7 36 10 50 8 42 15 74 20
100 3 14 8 41 11 60 3 19 7 43 10 52 3 10 7 30 10 45 2 16 7 42 11 58 3 17 7
39 9 50 3 23 9 49 29 150 8 39 17 86 20 105 3 19 10 53 15 75 5 22 12 60 15
85 4 24 9 49 12 54 3 5 7 23 9 40 2 17 6 42 9 56 3 14 8 36 10 50 2 14 7 36
10 50 3 14 7 36 10 50 2 14 9 50 15 80 6 30 13 66 16 80 2 14 9 48 15 75 6 28
13 66 16 85 3 19 10 60 17 90 23 104 49 95 -262 95 -300 0 -275 6 -286 -65 -3
-19 -8 -48 -12 -65 -50 -263 -67 -352 -80 -415 -8 -41 -17 -86 -20 -100 -2
-14 -11 -56 -19 -95 -8 -38 -22 -112 -31 -162 l-16 -93 -339 0 c-381 0 -348
-8 -329 78 6 23 13 59 16 80 3 20 10 44 15 53 4 9 6 18 4 21 -2 2 7 60 21 128
13 69 26 136 29 150 6 34 23 119 30 150 3 14 8 41 11 60 3 19 9 53 14 75 5 22
12 56 15 75 3 19 10 53 15 75 5 22 7 42 4 45 -10 10 -546 5 -550 -5z"/>
<path d="M7162 7660 c-4 -3 -8 -9 -9 -15 -7 -46 -14 -86 -22 -119 -6 -22 -9
-42 -9 -45 0 -3 0 -8 -2 -11 -1 -3 -4 -16 -6 -30 -2 -14 -22 -117 -44 -230
-22 -113 -41 -216 -44 -230 -2 -14 -9 -45 -14 -70 -6 -25 -13 -61 -16 -81 -3
-20 -8 -42 -10 -50 -3 -8 -7 -30 -10 -49 -6 -34 -10 -57 -21 -110 -3 -14 -8
-41 -11 -60 -3 -19 -7 -41 -10 -49 -2 -8 -7 -30 -10 -50 -3 -20 -10 -56 -15
-81 -5 -25 -12 -58 -15 -75 -11 -63 -18 -99 -39 -195 -4 -22 -13 -66 -31 -167
-3 -16 -10 -48 -15 -73 -6 -25 -12 -61 -15 -80 -2 -19 -6 -42 -9 -50 -2 -8 -7
-31 -10 -50 -3 -19 -11 -55 -16 -80 -6 -25 -12 -56 -14 -70 -2 -14 -7 -38 -10
-55 -36 -179 -56 -286 -61 -315 l-5 -35 268 1 c297 2 299 2 291 9 -3 4 -1 25
4 48 5 23 11 53 13 67 2 14 8 45 14 70 5 25 13 65 16 90 4 24 8 48 11 51 2 4
6 22 8 40 3 19 10 57 16 84 6 28 14 64 16 80 2 17 6 41 9 55 3 14 10 48 15 75
6 28 12 61 15 75 3 14 8 39 11 55 3 17 11 59 17 95 l12 65 164 0 165 0 39
-105 c75 -201 138 -375 149 -405 5 -16 14 -39 19 -50 5 -11 18 -47 30 -80 24
-69 57 -161 69 -190 4 -11 18 -45 29 -75 l21 -55 310 0 c205 0 309 3 306 10
-2 5 -23 57 -46 115 -23 58 -47 119 -54 135 -8 17 -21 50 -31 75 -10 25 -23
59 -30 75 -15 34 -31 74 -44 108 -4 12 -13 33 -19 47 -6 14 -21 50 -33 80 -12
30 -32 79 -45 108 -13 29 -24 57 -24 62 0 6 -4 18 -10 28 -15 28 -102 244 -98
247 2 1 28 10 58 20 88 29 136 53 245 124 93 60 248 239 270 311 4 14 11 27
14 30 7 5 50 127 56 156 2 11 4 21 5 24 6 14 24 158 24 190 3 331 -227 533
-655 576 -77 8 -1117 12 -1127 4z m930 -433 c190 -29 281 -107 279 -242 0 -57
-10 -125 -19 -140 -4 -5 -7 -16 -8 -23 -8 -50 -79 -147 -148 -200 -23 -18
-114 -58 -151 -66 -16 -3 -41 -9 -55 -13 -39 -9 -503 -16 -497 -6 3 4 8 26 11
48 3 22 11 63 16 90 6 28 12 59 14 70 26 133 57 295 62 315 3 14 6 34 8 45 2
11 8 45 15 75 l12 56 212 -2 c117 -1 229 -4 249 -7z"/>
<path d="M9459 7655 c-1 -14 -8 -52 -19 -111 -6 -28 -13 -63 -16 -79 -3 -16
-16 -85 -30 -154 -14 -70 -27 -135 -28 -146 -2 -11 -13 -69 -26 -130 -13 -60
-24 -119 -25 -130 0 -11 -4 -29 -8 -40 -3 -11 -8 -36 -11 -55 -3 -19 -8 -46
-11 -60 -6 -25 -9 -43 -20 -110 -4 -19 -10 -51 -15 -70 -5 -20 -12 -51 -14
-70 -3 -19 -8 -46 -11 -60 -2 -14 -9 -47 -15 -75 -6 -27 -13 -61 -15 -75 -3
-14 -7 -38 -9 -55 -2 -16 -6 -37 -9 -45 -3 -8 -13 -53 -21 -100 -9 -47 -19
-96 -21 -110 -3 -14 -8 -41 -11 -60 -4 -19 -8 -44 -11 -55 -10 -52 -34 -173
-39 -200 -3 -16 -6 -37 -8 -45 -16 -80 -20 -98 -22 -115 -1 -11 -3 -20 -4 -20
-2 0 -7 -24 -15 -75 -4 -24 -8 -47 -11 -51 -2 -3 -6 -21 -8 -40 -3 -19 -7 -45
-10 -59 -17 -81 -23 -120 -17 -121 3 -1 426 -2 939 -3 615 -1 936 2 941 9 9
11 21 56 27 100 4 28 6 41 19 105 2 14 7 36 9 50 3 14 7 35 10 46 2 12 7 38
10 59 4 20 9 41 12 46 7 11 56 11 -694 12 l-643 0 5 31 c2 17 14 78 26 136 12
58 24 116 26 130 3 14 11 57 19 97 8 39 17 87 20 105 4 18 12 57 19 87 l12 54
572 0 c315 0 572 1 572 2 0 2 9 47 20 101 11 55 23 113 25 129 3 17 8 41 10
55 3 14 8 36 10 50 3 14 8 40 11 58 l5 32 -570 0 c-492 0 -571 2 -571 15 0 7
4 36 10 62 5 26 12 59 14 73 3 14 7 34 9 45 2 11 7 36 11 55 8 43 11 60 36
185 11 55 22 113 24 129 3 16 8 31 11 35 4 3 288 6 631 7 343 0 626 2 628 5 2
2 6 18 9 34 7 37 46 242 52 270 11 57 22 115 21 116 0 1 -409 2 -908 3 -600 1
-908 -2 -909 -9z"/>
<path d="M2283 6202 c-15 -2 -23 -10 -23 -23 0 -10 0 -20 0 -21 -1 -2 -5 -21
-11 -43 -5 -22 -12 -56 -15 -75 -2 -19 -11 -64 -19 -100 -8 -36 -16 -78 -19
-95 -2 -16 -9 -52 -15 -80 -6 -27 -13 -61 -15 -75 -3 -14 -12 -63 -22 -110 -9
-47 -18 -92 -19 -100 -3 -22 -19 -102 -36 -185 -14 -64 -22 -115 -23 -140 -1
-19 8 -20 942 -20 l942 0 6 35 c3 19 8 44 12 55 3 11 7 29 8 40 1 11 5 34 9
50 48 244 47 237 36 244 -5 3 -305 6 -666 5 l-657 -1 6 41 c3 23 8 52 10 66
16 76 27 130 32 156 3 16 12 63 20 104 9 41 18 89 20 105 3 17 12 59 19 95 8
36 12 67 10 69 -5 4 -501 7 -532 3z"/>
<path d="M11442 5555 c-4 -5 -7 -14 -8 -20 -1 -5 -5 -26 -8 -45 -7 -36 -12
-66 -22 -110 -3 -14 -9 -50 -14 -80 -5 -30 -16 -78 -23 -107 -13 -49 -13 -51
7 -55 12 -2 113 -4 226 -3 l205 0 12 50 c7 27 15 66 17 85 2 19 11 67 19 105
9 39 17 84 20 100 3 17 8 42 12 58 4 15 3 27 -1 28 -66 7 -437 2 -442 -6z"/>
</g>
</svg>
