<?xml version="1.0" standalone="no"?>
<!DOCTYPE svg PUBLIC "-//W3C//DTD SVG 20010904//EN"
 "http://www.w3.org/TR/2001/REC-SVG-20010904/DTD/svg10.dtd">
<svg version="1.0" xmlns="http://www.w3.org/2000/svg"
 width="1024.000000pt" height="1024.000000pt" viewBox="0 0 1024.000000 1024.000000"
 preserveAspectRatio="xMidYMid meet">
<metadata>
Created by potrace 1.14, written by Peter Selinger 2001-2017
</metadata>
<g transform="translate(0.000000,1024.000000) scale(0.100000,-0.100000)"
fill="#000000" stroke="none">
<path d="M1920 9907 c-50 -27 -110 -67 -110 -75 0 -20 -63 -77 -87 -79 -40 -3
-51 -10 -68 -42 -49 -95 -58 -286 -21 -455 83 -379 113 -732 101 -1211 -4
-159 -8 -303 -10 -320 -5 -59 -15 -212 -20 -305 -9 -166 -22 -340 -35 -450
-14 -122 -30 -216 -46 -285 -15 -60 -44 -138 -50 -132 -2 2 3 37 11 78 15 79
29 209 45 399 5 63 14 156 19 205 5 50 12 126 15 170 3 44 15 186 27 315 25
285 27 582 4 750 -8 63 -20 167 -26 230 -14 166 -38 351 -59 460 -24 127 -25
67 -1 -116 22 -165 32 -389 17 -373 -2 2 -12 65 -21 139 -9 74 -23 167 -31
205 -8 39 -24 131 -34 205 -19 133 -19 137 0 260 10 69 18 161 17 205 -2 69 1
84 21 112 12 17 22 34 22 37 0 13 -38 5 -44 -9 -3 -8 -12 -15 -20 -15 -17 0
-37 -50 -42 -105 -6 -68 -36 -188 -55 -225 l-19 -35 6 57 c4 31 3 104 -1 163
-7 106 -7 106 -29 92 -19 -13 -21 -22 -18 -83 4 -75 -3 -113 -42 -220 -36
-100 -47 -190 -35 -288 5 -45 36 -214 69 -376 68 -344 75 -387 91 -580 31
-393 -56 -763 -210 -886 -31 -25 -63 -51 -71 -57 -277 -223 -351 -292 -337
-314 7 -10 126 11 158 27 10 6 20 10 22 10 3 0 -37 -42 -87 -92 -51 -51 -104
-113 -119 -138 -88 -151 -69 -400 37 -499 19 -18 23 -27 14 -32 -14 -9 -147
62 -160 84 -4 9 -15 51 -24 94 -23 107 -15 365 14 473 23 88 76 200 127 272
20 28 47 70 60 93 13 23 37 56 54 74 17 18 31 37 31 41 0 5 8 11 18 14 9 3 78
66 153 138 158 155 185 200 219 368 20 95 21 123 15 300 -10 303 -45 586 -97
800 -30 121 -31 128 -19 220 6 52 18 115 26 140 72 217 85 300 64 386 -13 49
-22 52 -94 33 -44 -12 -115 -56 -115 -71 0 -6 14 -40 31 -76 27 -56 31 -72 26
-120 -8 -73 -44 -142 -121 -231 -36 -40 -79 -101 -97 -135 l-32 -62 26 -27
c15 -14 27 -37 27 -50 0 -13 20 -63 45 -111 55 -109 60 -162 19 -222 -55 -81
-51 -118 26 -224 188 -258 236 -508 139 -716 -12 -25 -52 -79 -88 -118 -78
-84 -162 -190 -182 -228 -8 -14 -39 -53 -70 -86 -89 -93 -146 -185 -184 -292
-20 -55 -45 -192 -45 -243 0 -23 -4 -36 -10 -32 -14 8 -4 116 21 222 10 45 37
120 60 165 34 68 43 98 50 163 4 44 3 84 -1 88 -14 16 -77 -52 -103 -110 -40
-91 -49 -181 -44 -448 5 -274 13 -399 27 -403 6 -2 9 -63 9 -150 -1 -81 -5
-129 -8 -107 -3 22 -9 36 -12 30 -4 -5 -5 -19 -3 -30 12 -85 15 -164 7 -181
-6 -13 -3 -80 11 -204 11 -102 22 -177 24 -167 2 9 8 17 13 17 6 0 9 -45 7
-114 -2 -63 -6 -112 -10 -109 -13 7 -9 -84 8 -165 9 -42 31 -109 50 -149 19
-41 34 -88 34 -109 0 -24 4 -34 13 -31 6 2 12 16 12 30 1 40 11 41 34 4 27
-44 57 -132 71 -206 11 -59 -6 -195 -31 -258 -44 -106 -59 -119 -40 -32 5 24
8 45 6 47 -4 5 -50 -147 -66 -223 -12 -53 -14 -56 -17 -27 -6 57 56 316 89
376 17 29 1 114 -23 127 -18 10 -20 9 -15 -5 9 -22 -17 -194 -39 -266 -18 -57
-20 -138 -15 -507 2 -169 2 -169 -53 -308 -34 -90 -14 -440 35 -572 11 -32 29
-92 39 -133 21 -86 33 -124 49 -160 6 -14 20 -83 30 -155 17 -116 19 -123 19
-65 1 36 -2 95 -7 133 -4 37 -4 67 0 67 3 0 9 -30 13 -67 4 -38 13 -115 20
-173 l13 -105 1 85 c1 74 -15 230 -33 317 -3 15 10 -3 29 -42 19 -38 33 -59
31 -45 -13 73 -35 256 -35 288 1 50 15 23 24 -43 3 -27 17 -95 31 -150 38
-156 53 -276 60 -465 3 -96 13 -235 21 -309 14 -124 13 -170 -2 -125 -14 44
-27 74 -30 71 -2 -1 5 -49 15 -106 l18 -104 -43 45 c-33 35 -44 55 -50 94 -4
27 -10 41 -12 31 -2 -9 -8 -17 -13 -17 -5 0 -9 -8 -10 -17 0 -11 -3 -13 -6 -5
-10 25 -23 11 -39 -44 -14 -49 -17 -53 -29 -38 -12 17 -13 17 -18 -2 -3 -10
-9 -46 -12 -79 -3 -33 -8 -74 -10 -91 -13 -100 -26 -316 -20 -354 13 -92 38
-206 50 -230 24 -46 99 -109 160 -134 33 -13 63 -22 67 -20 4 3 5 28 2 57 -7
69 14 39 23 -32 7 -62 46 -102 129 -130 32 -11 59 -25 59 -33 0 -38 80 -98
129 -98 l31 1 -27 17 c-34 20 -34 24 -5 58 18 21 28 25 43 19 10 -4 25 -7 32
-6 6 1 12 -6 12 -16 0 -33 37 -124 59 -146 28 -29 140 -36 209 -14 26 9 78 21
116 28 37 7 70 19 73 26 3 7 10 10 16 6 6 -4 126 -8 267 -9 140 -1 305 -4 365
-6 61 -3 76 -3 35 -1 -102 5 -116 13 -50 29 78 18 207 27 260 16 l45 -8 -80
-16 -80 -16 70 6 c39 4 123 6 189 5 118 -2 146 5 146 36 0 6 6 11 14 11 8 0
18 5 22 12 4 7 3 8 -4 4 -21 -13 -13 0 23 39 21 22 41 35 50 31 8 -3 21 1 29
9 24 24 41 17 60 -25 12 -29 21 -37 29 -30 7 6 23 20 37 31 22 18 24 27 22 82
-1 35 -8 82 -17 107 -8 24 -18 64 -20 89 -7 66 -14 288 -8 273 3 -6 9 -10 13
-7 5 3 11 -16 15 -42 13 -103 70 -301 104 -361 20 -35 20 13 1 100 -38 167
-50 311 -35 411 12 81 24 51 24 -62 1 -103 17 -214 40 -271 7 -19 8 -11 3 30
-4 30 -7 111 -7 180 0 111 3 130 23 167 27 51 59 83 84 83 26 0 23 -14 -17
-69 -52 -72 -66 -121 -66 -236 0 -99 20 -227 40 -262 10 -17 10 -16 11 2 0 13
8 4 20 -24 31 -68 35 -41 6 43 -49 141 -45 290 10 378 42 66 85 82 148 55 l30
-13 -28 -20 c-107 -74 -136 -127 -136 -245 0 -71 30 -160 68 -203 44 -50 94
-76 146 -76 42 -1 48 -3 32 -12 -11 -6 -48 -9 -93 -6 -80 5 -89 -3 -35 -32 25
-14 71 -19 193 -25 88 -4 183 -13 212 -20 l52 -13 -90 0 c-103 0 -152 -9 -136
-25 16 -16 13 -27 -6 -27 -10 -1 -29 -7 -42 -14 -23 -13 -23 -14 -5 -23 10 -6
50 -18 87 -28 37 -10 70 -22 72 -26 3 -4 -19 -10 -47 -15 -51 -7 -52 -7 -23
-16 17 -5 86 -8 155 -8 189 2 309 -12 330 -37 14 -18 33 -22 124 -28 112 -8
193 5 209 32 9 15 37 18 37 4 0 -5 26 -7 59 -5 32 3 79 0 105 -6 26 -6 93 -13
150 -17 l103 -6 7 38 7 38 47 -7 c129 -19 153 -19 245 3 90 22 94 22 202 6
166 -24 669 -66 775 -64 51 1 53 2 20 9 -19 5 -60 11 -90 15 -29 4 -62 11 -72
16 -10 5 -71 13 -135 16 -64 3 -108 9 -98 13 11 4 -45 10 -125 13 -80 3 -156
9 -170 13 l-25 8 30 8 c19 5 11 5 -23 2 -31 -3 -51 -1 -48 4 3 5 -23 12 -57
16 -61 6 -452 93 -432 96 12 1 -115 33 -204 51 -40 8 -58 15 -47 19 9 3 -23
11 -71 19 -113 16 -225 38 -288 56 -27 7 -108 26 -180 40 -71 15 -132 29 -135
32 -9 9 100 -8 245 -39 192 -41 321 -59 375 -53 33 3 38 2 20 -4 -21 -7 -17
-9 20 -8 25 1 68 -2 95 -6 73 -10 -120 38 -249 62 -60 12 -112 24 -115 27 -3
4 8 4 24 1 17 -3 93 -15 170 -27 77 -12 173 -27 212 -34 58 -10 71 -10 62 0
-5 7 -33 15 -62 19 -71 9 -303 52 -412 77 -108 25 -306 86 -320 100 -7 6 -5 7
5 4 168 -57 322 -93 600 -141 52 -9 131 -23 175 -31 44 -8 118 -21 165 -29
l85 -14 -74 5 c-41 2 -73 2 -70 -1 13 -12 256 -37 369 -37 115 0 122 -1 90
-13 -47 -18 -183 -18 -300 0 -91 14 -141 13 -64 -1 136 -24 216 -43 194 -44
-14 -1 16 -8 65 -16 64 -11 152 -14 303 -12 174 2 208 1 185 -9 -15 -7 -36
-12 -45 -13 -10 0 -18 -5 -18 -10 0 -8 38 -9 118 -4 64 4 134 7 154 8 21 0 33
3 27 7 -6 3 1 9 16 13 15 4 30 5 33 1 3 -3 -2 -5 -11 -5 -9 0 -17 -4 -17 -10
0 -5 6 -10 14 -10 8 0 16 -7 20 -15 3 -8 17 -15 31 -15 32 0 32 -7 -1 -32 -33
-26 -16 -40 41 -32 30 4 36 3 25 -5 -12 -8 -7 -11 22 -11 20 0 38 -4 40 -9 4
-12 213 -17 288 -7 32 4 65 3 80 -3 22 -9 20 -10 -21 -10 -45 -1 -81 -22 -65
-38 4 -4 10 -2 14 4 5 7 70 13 187 16 99 4 231 11 294 17 118 11 176 6 136
-12 -15 -6 -13 -7 10 -3 17 3 75 9 130 14 65 5 126 17 173 35 60 21 91 26 170
26 64 0 92 3 82 10 -29 18 1 22 87 11 48 -7 108 -14 133 -18 52 -6 117 21 100
42 -14 17 42 37 76 29 18 -5 24 -2 24 10 0 14 14 16 91 16 84 0 90 1 84 19 -5
18 -1 19 87 14 88 -4 95 -3 127 21 19 15 40 26 45 26 6 1 29 38 52 83 35 70
49 88 102 127 34 25 75 63 91 86 31 44 91 154 91 167 0 5 13 39 30 77 18 41
38 114 49 182 11 62 40 185 66 273 26 88 52 178 57 200 6 22 20 74 33 115 13
41 27 93 31 115 3 22 11 46 17 53 11 14 3 87 -17 152 -40 127 -49 224 -42 458
8 242 -10 559 -39 717 -32 174 -29 768 5 1155 5 58 10 440 11 850 2 718 7 846
33 879 12 15 13 86 8 811 -3 397 7 745 24 818 5 25 -23 233 -37 270 -6 15 -5
39 2 64 9 33 7 52 -11 112 -21 68 -62 150 -81 162 -5 3 -8 2 -7 -3 2 -5 -9
-21 -23 -37 -31 -33 -40 -25 -44 40 -3 46 11 109 29 133 13 17 9 252 -5 288
-5 13 -9 56 -9 94 0 74 -19 127 -58 162 -10 10 -50 33 -87 53 -38 19 -73 39
-79 44 -7 5 -34 16 -61 25 -28 10 -70 26 -94 37 -24 11 -66 21 -95 23 -51 3
-51 3 -16 -8 19 -7 48 -24 64 -39 16 -16 35 -28 41 -28 10 0 25 -20 25 -34 0
-9 -138 47 -169 68 -45 31 -62 35 -188 40 -87 4 -105 2 -120 -12 -12 -12 -30
-16 -67 -14 -70 4 -136 4 -166 -1 -14 -2 -35 0 -48 5 -13 4 -47 10 -76 13 -30
3 -76 12 -102 20 -64 19 -103 19 -111 -1 -3 -9 0 -20 7 -24 9 -6 0 -10 -26
-12 -37 -3 -39 -4 -36 -35 3 -28 -3 -35 -45 -64 -26 -18 -70 -51 -98 -74 -27
-22 -72 -54 -98 -69 -53 -31 -87 -76 -87 -119 0 -35 -24 -45 -50 -22 -25 23
-25 36 0 68 l20 25 -20 -5 c-26 -7 -80 -57 -80 -74 0 -19 81 -92 126 -115 22
-11 39 -25 36 -32 -10 -30 -107 -3 -238 65 -67 35 -78 46 -88 86 -6 24 -1 33
29 60 19 18 59 55 88 82 29 28 82 68 120 89 37 22 67 43 67 47 0 14 -44 39
-109 60 -36 12 -73 32 -83 44 -10 12 -30 27 -45 33 -53 20 -181 33 -253 26
-47 -4 -70 -3 -70 4 0 6 12 13 28 15 15 2 9 2 -13 0 -130 -14 -224 -14 -253 1
-17 9 -63 18 -104 21 -54 3 -64 2 -38 -4 19 -5 49 -14 65 -19 l30 -10 -38 -1
c-21 -1 -36 -5 -33 -10 3 -5 15 -7 25 -4 10 3 22 0 25 -6 4 -6 18 -11 31 -11
13 0 27 -4 30 -10 3 -5 14 -10 23 -10 9 0 46 -15 82 -33 86 -42 87 -61 5 -102
-123 -61 -163 -92 -259 -205 -24 -28 -27 -40 -16 -60 21 -39 100 -67 435 -155
140 -37 307 -89 335 -106 27 -15 -40 -10 -120 10 -41 11 -138 31 -215 46 -252
48 -475 115 -544 164 -35 25 -47 55 -33 85 5 11 18 40 28 64 22 55 34 67 119
130 95 70 95 70 95 93 0 39 -174 125 -295 144 -50 8 -110 19 -135 24 -103 22
-130 24 -130 7 0 -13 -5 -14 -26 -6 -70 27 -234 1 -234 -36 0 -15 -19 -15
-215 7 -49 6 -99 10 -110 10 -20 0 -73 8 -195 28 -36 6 -108 13 -160 15 -52 2
-147 7 -210 10 -63 3 -104 3 -90 0 14 -3 30 -10 35 -16 7 -6 -38 -7 -130 -3
-161 8 -295 -4 -430 -40 -204 -55 -298 -58 -720 -26 -135 11 -154 15 -190 39
-48 31 -64 35 -72 16 -4 -12 -8 -12 -19 3 -11 15 -13 15 -8 2 4 -12 -1 -16
-18 -14 -13 2 -81 8 -153 15 -129 11 -216 28 -287 55 -31 12 -38 12 -48 0 -25
-30 -120 -17 -248 34 -67 27 -128 28 -136 3 -4 -10 -44 -53 -90 -95 -70 -64
-91 -91 -125 -160 -46 -93 -49 -114 -22 -173 23 -51 124 -151 190 -188 38 -22
151 -118 192 -163 38 -43 53 -66 89 -143 4 -9 11 -31 15 -50 7 -31 6 -33 -9
-21 -9 7 -16 23 -16 36 0 12 -15 44 -32 71 -65 98 -150 169 -303 254 -119 66
-172 101 -192 128 -30 41 -46 98 -38 139 19 100 136 283 232 362 l37 31 -31
-9 c-84 -24 -198 -141 -259 -267 -66 -137 -59 -192 35 -276 26 -24 84 -65 127
-93 77 -48 116 -79 179 -140 184 -180 197 -467 30 -653 -45 -50 -141 -119
-151 -109 -3 3 6 27 19 54 63 124 75 290 32 419 -40 119 -68 159 -215 304
-168 165 -185 194 -185 310 1 81 3 90 47 182 37 75 63 113 122 175 44 46 69
79 61 81 -7 2 -41 -9 -75 -23 -34 -14 -64 -24 -66 -22 -3 2 9 10 26 17 33 14
31 30 -4 30 -13 0 -52 9 -86 20 -72 23 -144 26 -180 7z m3462 -166 c82 -28
114 -47 144 -86 28 -37 27 -60 -1 -31 -26 25 -125 81 -182 101 -29 10 -50 22
-47 27 8 12 25 10 86 -11z m829 9 c10 -6 19 -15 19 -20 0 -11 -57 8 -66 21 -7
12 23 11 47 -1z m-3271 -44 c0 -17 -27 -40 -33 -29 -8 13 12 55 23 48 5 -3 10
-12 10 -19z m3287 -22 c134 -43 147 -66 66 -115 -55 -32 -82 -58 -114 -108
-23 -36 -29 -56 -29 -101 0 -50 3 -59 33 -86 34 -32 132 -96 205 -133 24 -12
42 -25 39 -27 -3 -3 -56 10 -118 30 -63 19 -148 44 -191 55 -167 45 -238 92
-238 159 0 47 29 78 115 123 134 69 165 91 165 116 0 24 -51 92 -73 96 -12 2
4 5 35 6 32 0 79 -6 105 -15z m926 -10 c40 -8 81 -19 92 -24 11 -4 42 -16 70
-26 27 -9 60 -28 73 -41 21 -21 23 -31 18 -64 -6 -40 -61 -133 -105 -177 -18
-18 -22 -30 -17 -55 8 -42 46 -74 155 -128 172 -85 68 -66 -214 40 -113 43
-182 78 -205 106 -11 13 -9 22 11 59 20 38 34 49 111 87 99 49 138 80 138 112
0 27 -20 40 -113 73 -40 14 -79 32 -87 40 -18 18 -15 17 73 -2z m-3123 -9 c91
-8 166 -14 168 -15 1 0 -6 -10 -18 -22 -12 -14 -16 -24 -10 -28 6 -4 -94 -10
-222 -13 -177 -5 -257 -11 -332 -27 -55 -11 -179 -34 -275 -50 -202 -34 -238
-43 -303 -76 -104 -53 -97 -109 28 -225 181 -169 235 -249 274 -414 12 -49 25
-138 30 -198 8 -94 6 -125 -16 -254 -20 -126 -32 -246 -17 -190 2 9 9 17 14
17 5 0 9 7 9 16 0 8 6 25 12 37 7 12 19 45 26 72 7 28 18 68 24 90 6 22 12
105 12 185 0 118 -4 162 -22 234 -32 128 -70 192 -193 321 -140 147 -153 197
-61 244 62 32 260 89 382 111 63 11 151 28 195 38 99 21 356 23 465 3 90 -16
169 -44 200 -71 l23 -20 -26 0 c-28 0 -37 -15 -14 -23 31 -11 -7 -13 -103 -6
-369 28 -623 20 -806 -26 -178 -46 -214 -81 -174 -172 11 -26 24 -50 29 -53
25 -17 109 -134 132 -186 53 -117 80 -342 60 -499 -13 -99 -79 -330 -126 -440
-7 -16 -23 -55 -36 -85 -65 -157 -151 -234 -513 -456 -145 -89 -250 -183 -285
-256 -28 -59 -34 -169 -14 -273 13 -70 60 -226 148 -490 39 -119 60 -204 51
-212 -9 -9 -21 5 -49 57 -65 120 -160 287 -173 300 -26 30 -112 226 -129 293
-20 83 -13 283 15 472 21 139 36 184 87 268 59 97 102 217 78 217 -22 0 -71
-39 -104 -83 -70 -93 -104 -191 -152 -439 -7 -37 -16 -65 -20 -62 -15 9 -21
132 -10 205 6 41 16 115 22 164 6 50 20 117 31 150 41 125 169 266 308 341
137 73 266 198 321 310 30 61 34 77 33 149 -1 131 -58 332 -124 434 -38 58
-64 84 -189 185 -82 66 -111 106 -111 154 0 39 35 76 93 99 24 10 36 21 35 32
-2 11 5 16 24 16 16 1 33 6 40 13 7 7 21 12 32 12 11 0 40 10 64 21 26 13 78
25 130 30 48 5 116 18 152 28 88 26 127 31 362 46 275 17 327 17 518 0z m2475
-15 c13 -5 14 -9 5 -9 -8 0 -24 4 -35 9 -13 5 -14 9 -5 9 8 0 24 -4 35 -9z
m2650 -112 c14 -6 25 -15 25 -20 0 -4 3 -7 8 -7 19 3 30 -2 36 -17 5 -14 4
-15 -9 -4 -8 7 -22 10 -30 6 -9 -3 -18 1 -21 9 -6 14 -41 31 -57 27 -5 -1 -6
2 -2 8 8 13 18 13 50 -2z m-7221 -281 c55 -225 79 -438 80 -704 1 -213 -3
-267 -18 -252 -6 6 -26 190 -32 299 -3 52 -18 190 -34 305 -33 245 -45 434
-34 531 l8 69 8 -93 c4 -51 14 -121 22 -155z m-537 191 c-3 -8 -6 -5 -6 6 -1
11 2 17 5 13 3 -3 4 -12 1 -19z m5052 -77 c-3 -52 5 -76 34 -108 26 -29 8 -30
-50 -4 -61 28 -67 67 -20 138 28 41 39 32 36 -26z m466 -7 c3 -38 10 -54 31
-70 43 -35 180 -98 348 -160 169 -63 182 -83 27 -44 -47 12 -113 28 -146 37
-181 45 -360 121 -378 160 -10 22 -8 27 24 51 19 15 45 38 59 52 14 14 26 25
27 24 2 0 5 -23 8 -50z m-5528 -16 c-2 -13 -4 -3 -4 22 0 25 2 35 4 23 2 -13
2 -33 0 -45z m4304 23 c10 5 32 9 50 9 31 0 32 0 26 -41 -6 -45 17 -97 56
-131 30 -26 18 -30 -44 -13 -30 8 -89 24 -132 35 -95 25 -127 39 -127 56 0 23
21 26 43 7 37 -33 51 -39 38 -15 -8 15 -7 27 4 49 8 15 15 41 15 56 l0 28 27
-25 c20 -19 31 -23 44 -15z m3597 24 c85 -43 148 -175 158 -330 5 -96 -4 -81
-42 64 -13 52 -33 109 -44 125 -11 17 -28 47 -39 66 -10 19 -30 47 -44 63 -30
32 -30 32 11 12z m-5045 -20 c85 -15 171 -41 102 -31 -218 34 -533 32 -667 -3
-91 -24 -171 -62 -192 -93 -26 -37 -20 -109 15 -185 45 -100 47 -104 68 -159
37 -97 60 -382 38 -474 -2 -8 -9 -41 -16 -73 -7 -32 -19 -70 -27 -85 -8 -15
-14 -32 -14 -39 0 -7 -6 -27 -14 -45 -37 -86 -44 -105 -51 -136 -4 -18 -13
-45 -21 -60 -8 -15 -14 -33 -14 -39 0 -7 -14 -43 -32 -80 -72 -154 -172 -257
-408 -423 -139 -98 -242 -201 -278 -276 -23 -51 -27 -71 -27 -149 1 -81 4 -98
36 -170 19 -44 72 -141 116 -215 44 -74 92 -160 106 -190 26 -56 121 -415 114
-428 -3 -4 1 -40 7 -80 l11 -73 163 843 c90 464 166 854 169 868 5 20 -6 12
-51 -37 -31 -34 -110 -106 -174 -159 -183 -151 -255 -229 -277 -300 -24 -75
-22 -140 5 -229 21 -67 42 -104 130 -230 48 -68 95 -164 105 -214 11 -54 -7
-31 -80 101 -37 68 -89 150 -115 183 -129 165 -173 254 -173 355 -1 122 63
210 235 324 56 38 127 85 157 105 65 43 211 180 211 198 0 7 4 13 9 13 5 0 13
10 17 22 3 12 14 29 22 37 14 14 15 13 10 -14 -15 -75 -20 -110 -16 -105 21
22 78 146 88 193 8 32 17 60 22 63 4 3 8 13 8 22 1 9 9 35 20 57 11 22 19 45
20 50 0 6 16 40 35 75 19 36 35 68 35 73 0 4 -11 7 -25 7 -20 0 -29 -9 -45
-47 -12 -27 -27 -61 -35 -78 -7 -16 -23 -59 -35 -95 -11 -36 -27 -78 -34 -95
-8 -16 -16 -37 -20 -45 -8 -19 -5 -2 35 198 l32 162 37 0 c41 0 40 -1 89 122
95 245 100 426 16 676 -48 143 -51 158 -34 196 19 41 109 91 208 116 64 17
254 14 338 -4 124 -26 117 -34 -23 -29 -221 9 -380 -33 -422 -114 -19 -35 -14
-74 24 -190 29 -91 36 -127 41 -228 3 -70 1 -141 -5 -170 -23 -108 -34 -150
-43 -160 -5 -5 -9 -15 -9 -23 0 -15 -17 -57 -56 -135 -13 -27 -24 -50 -24 -52
0 -2 25 -5 55 -7 l54 -3 -44 -88 c-36 -72 -71 -184 -61 -194 6 -6 46 11 46 20
0 14 76 171 107 219 13 21 23 40 23 43 0 3 -13 5 -30 5 -16 0 -30 4 -30 9 0 5
14 36 30 69 17 34 30 68 30 76 0 8 4 17 9 20 5 3 12 22 16 42 3 20 10 44 15
53 28 50 42 141 51 331 11 226 17 246 79 288 73 49 212 66 332 41 82 -17 81
-29 -3 -29 -88 0 -182 -26 -232 -64 -56 -43 -72 -91 -91 -271 -14 -143 -33
-240 -56 -285 -4 -9 -11 -30 -14 -48 -4 -17 -12 -34 -17 -37 -5 -4 -9 -13 -9
-22 0 -16 -20 -65 -51 -124 -10 -20 -19 -39 -19 -43 0 -3 702 -6 1561 -6 1407
0 1561 -2 1555 -16 -4 -9 -2 -13 5 -8 6 4 15 0 20 -7 6 -10 11 -11 17 -3 4 6
16 16 27 22 18 10 15 11 -19 12 -36 0 -38 1 -24 18 26 30 28 51 7 117 -16 53
-18 69 -8 87 7 13 13 41 13 63 l1 40 65 23 c55 19 79 22 156 18 156 -9 206
-31 228 -104 4 -12 16 -27 27 -32 10 -6 19 -19 19 -29 0 -21 -2 -22 -175 -78
-113 -36 -192 -72 -233 -104 -23 -18 -23 -18 44 -21 l67 -3 -39 -20 c-35 -19
-73 -69 -61 -81 2 -2 21 8 43 23 21 15 62 39 89 55 l50 28 -35 0 -35 1 25 14
c40 23 170 62 230 68 60 7 53 3 -67 -34 -142 -43 -130 -48 102 -49 213 0 275
-7 332 -37 42 -22 33 -46 -13 -37 -22 4 -34 2 -34 -5 0 -6 -16 -11 -36 -11
l-36 0 7 40 c5 30 3 40 -7 40 -19 0 -170 -37 -199 -49 -13 -5 -50 -19 -81 -31
-32 -12 -58 -27 -58 -32 0 -6 -6 -8 -14 -5 -7 3 -24 -2 -37 -10 -12 -9 -19
-11 -15 -5 5 8 2 10 -8 6 -9 -3 -16 -9 -16 -13 0 -5 -16 -16 -35 -27 -19 -10
-35 -22 -35 -27 0 -4 -4 -6 -9 -3 -13 8 -63 -45 -57 -61 3 -7 1 -13 -4 -13 -6
0 -10 -6 -10 -14 0 -7 -7 -19 -15 -26 -8 -7 -15 -18 -15 -24 0 -8 2 -8 8 1 4
6 24 14 45 18 21 4 41 14 44 21 3 8 9 11 14 8 5 -3 9 -1 9 5 0 14 58 43 70 36
6 -3 10 -2 10 2 0 5 36 21 80 37 44 15 80 33 80 38 0 5 10 6 21 3 14 -5 19 -3
15 3 -6 10 84 44 144 55 14 2 33 8 43 12 16 7 18 4 15 -20 -4 -33 -7 -35 -118
-69 -131 -41 -170 -58 -163 -69 4 -6 0 -8 -11 -4 -11 5 -15 3 -10 -5 5 -8 2
-9 -9 -5 -10 3 -17 2 -17 -3 0 -6 -5 -10 -11 -10 -30 0 -134 -89 -170 -145
-36 -56 -40 -80 -24 -148 19 -84 31 -90 37 -19 3 32 10 67 15 78 6 10 18 36
28 56 10 21 50 70 89 109 77 77 141 113 266 149 41 12 80 28 85 35 14 17 81
30 89 17 3 -5 -14 -13 -39 -16 l-44 -7 -11 -57 c-7 -31 -18 -85 -25 -120 -12
-57 -11 -62 4 -58 110 32 159 28 254 -21 73 -38 62 -48 -50 -43 -61 2 -147
-42 -180 -92 -30 -44 -35 -112 -15 -183 6 -22 10 -41 8 -42 -1 -2 -21 23 -44
54 -23 32 -42 54 -42 50 0 -10 -50 -269 -56 -289 -5 -17 -84 -18 -1468 -18
l-1463 0 -51 -262 c-28 -145 -56 -293 -63 -330 -7 -38 -16 -68 -21 -68 -5 0
-7 -4 -3 -10 4 -7 -106 -612 -132 -717 l-5 -23 191 0 c181 0 191 -1 180 -18
-12 -19 -135 -109 -184 -135 -90 -47 -113 -55 -123 -45 -14 14 -55 -15 -92
-65 -36 -50 -37 -43 -5 113 14 68 25 129 25 136 0 11 -33 14 -169 14 l-170 0
-48 -62 c-26 -35 -60 -75 -75 -90 -16 -15 -28 -31 -28 -35 0 -7 -68 -114 -89
-139 -5 -6 -11 -20 -15 -31 -4 -11 -16 -31 -27 -44 -11 -13 -43 -96 -72 -185
-28 -90 -55 -160 -60 -157 -13 8 1 134 22 196 24 68 120 234 159 276 8 8 24
30 37 50 13 20 34 48 47 63 13 15 33 40 45 55 12 16 38 46 58 66 l36 37 -95 0
-94 0 -41 -46 c-22 -26 -58 -71 -78 -101 -21 -31 -45 -65 -53 -77 -8 -12 -24
-36 -35 -54 -11 -17 -23 -32 -27 -32 -5 0 -8 -6 -8 -13 0 -7 -11 -28 -25 -46
-13 -19 -34 -62 -47 -97 -13 -35 -26 -64 -30 -64 -5 0 -11 0 -15 0 -5 0 -9 9
-9 20 -1 11 3 20 9 20 6 0 8 3 4 6 -3 3 1 23 8 45 8 22 13 40 12 42 -9 10 182
277 255 355 l39 42 -338 -2 -338 -3 0 -57 c1 -120 -28 -23 -50 167 -16 143
-28 196 -82 360 -52 158 -102 267 -206 449 -139 241 -161 300 -161 421 0 64 4
89 23 125 35 67 117 138 240 210 201 117 349 219 416 286 36 36 65 69 65 74 0
5 6 15 13 22 21 22 44 78 76 183 17 55 35 109 40 120 11 24 54 161 72 230 10
34 14 109 13 235 0 251 -24 342 -129 489 -91 128 -87 184 14 236 67 33 214 74
307 85 110 12 391 4 497 -15z m-163 -25 c54 -6 43 -7 -70 -8 -142 -1 -256 -15
-323 -38 -46 -16 -58 -18 -37 -4 64 43 276 68 430 50z m137 -16 c-3 -3 -12 -4
-19 -1 -8 3 -5 6 6 6 11 1 17 -2 13 -5z m-2411 -396 c25 -133 29 -268 38
-1348 5 -630 -3 -872 -38 -1155 -17 -134 -51 -293 -67 -309 -12 -14 -12 6 2
41 6 15 15 80 20 143 12 151 24 289 39 430 15 135 18 608 8 970 -4 140 -10
388 -13 550 -3 162 -8 401 -11 530 -3 129 -2 231 1 228 4 -4 13 -40 21 -80z
m2503 -17 c11 -7 7 -13 -17 -25 -18 -9 -41 -29 -53 -45 -23 -31 -58 -124 -59
-153 0 -10 -4 -18 -9 -18 -5 0 -12 -10 -14 -22 -2 -13 -2 0 0 27 12 129 49
212 104 234 31 12 31 12 48 2z m-1459 -133 c0 -38 -5 -34 -13 10 -4 21 -3 31
3 27 6 -3 10 -20 10 -37z m9 -217 c17 -31 6 -123 -20 -174 -32 -63 -98 -127
-131 -127 -15 0 -28 3 -28 6 0 11 44 84 50 84 8 0 60 104 60 120 0 6 6 21 14
33 8 12 18 49 22 82 6 51 8 56 14 30 4 -16 12 -41 19 -54z m1288 -3 c-3 -8 -6
-5 -6 6 -1 11 2 17 5 13 3 -3 4 -12 1 -19z m5428 -283 c-3 -25 -13 -63 -21
-83 -15 -39 -14 -30 6 71 14 68 25 77 15 12z m-7578 -27 c-3 -7 -5 -2 -5 12 0
14 2 19 5 13 2 -7 2 -19 0 -25z m7590 -350 c-3 -7 -5 -2 -5 12 0 14 2 19 5 13
2 -7 2 -19 0 -25z m-10 -80 c-2 -13 -4 -5 -4 17 -1 22 1 32 4 23 2 -10 2 -28
0 -40z m-10 -65 c-3 -10 -5 -4 -5 12 0 17 2 24 5 18 2 -7 2 -21 0 -30z m-1577
-143 c86 -1 74 -37 -21 -64 -30 -8 -64 -25 -74 -36 -28 -31 -31 -106 -6 -165
l21 -50 -40 45 c-54 61 -75 106 -75 162 0 38 5 53 26 74 28 27 80 45 114 38
11 -2 36 -4 55 -4z m-204 -369 c8 -9 13 -19 12 -22 -2 -4 4 -15 14 -25 19 -23
38 -86 38 -132 0 -48 -37 -103 -150 -222 -134 -141 -131 -116 12 107 73 115
92 199 59 268 -12 25 -18 51 -14 58 5 8 8 7 11 -2 3 -8 11 -21 18 -30z m362
-265 c79 -129 100 -270 63 -417 -29 -114 -72 -199 -128 -251 -114 -105 -121
-115 -221 -314 -119 -237 -143 -362 -103 -529 30 -121 39 -145 139 -365 16
-36 39 -85 50 -110 149 -329 250 -610 272 -762 17 -110 9 -240 -18 -299 -21
-48 -81 -133 -88 -127 -2 3 4 29 15 59 45 132 34 420 -24 617 -96 324 -146
441 -308 712 -91 153 -177 321 -201 395 -20 62 -46 232 -46 302 0 75 45 326
74 412 34 97 73 175 140 274 71 104 125 163 204 221 70 52 99 92 107 151 6 36
-3 101 -21 151 -10 27 56 -57 94 -120z m-7083 24 c-3 -5 -12 -10 -18 -10 -7 0
-6 4 3 10 19 12 23 12 15 0z m7330 -212 c-3 -24 -7 -72 -10 -108 -11 -193 -69
-446 -142 -625 -43 -105 -64 -139 -127 -205 -105 -109 -149 -233 -148 -412 2
-183 53 -370 202 -748 12 -30 24 -66 27 -80 3 -14 9 -30 14 -35 4 -6 21 -51
37 -100 16 -50 34 -101 40 -115 45 -114 93 -379 73 -404 -6 -7 -9 -21 -5 -30
3 -9 1 -16 -5 -16 -6 0 -11 -6 -11 -14 0 -8 -6 -16 -14 -19 -12 -5 -14 12 -13
96 0 111 -23 268 -54 360 -10 31 -19 62 -19 69 0 18 -134 385 -225 618 -151
385 -162 564 -48 797 38 76 66 116 130 184 85 90 114 141 174 301 41 109 68
222 90 376 10 74 22 138 25 143 12 19 15 7 9 -33z m-1049 -381 c2 -402 -7
-548 -20 -327 -8 138 -10 617 -4 680 7 65 7 64 15 56 4 -4 8 -188 9 -409z
m-6176 243 c0 -5 -5 -10 -11 -10 -5 0 -7 5 -4 10 3 6 8 10 11 10 2 0 4 -4 4
-10z m-523 -42 c-3 -8 -6 -5 -6 6 -1 11 2 17 5 13 3 -3 4 -12 1 -19z m448 -75
c-15 -26 -41 -74 -58 -106 -16 -32 -32 -56 -34 -53 -7 7 25 77 69 149 46 76
65 85 23 10z m240 -345 c-26 -45 -78 -152 -115 -237 -73 -169 -96 -198 -86
-110 10 100 23 149 50 187 112 160 187 255 195 247 2 -3 -18 -42 -44 -87z
m-638 -225 c-2 -32 -3 -6 -3 57 0 63 1 89 3 58 2 -32 2 -84 0 -115z m136 0
c59 -95 109 -168 150 -216 22 -26 37 -51 33 -54 -3 -4 -21 11 -40 33 -19 21
-45 52 -60 69 -14 16 -51 79 -81 140 -57 113 -57 117 -2 28z m4716 24 c-100
-49 -123 -108 -73 -193 l26 -44 -55 0 c-52 0 -57 2 -75 33 -47 76 -35 133 37
180 44 29 95 45 151 46 l35 0 -46 -22z m-609 -2 c0 -7 11 -33 25 -59 13 -25
30 -75 36 -111 l12 -65 187 0 187 0 46 -57 c26 -32 64 -77 84 -100 39 -43 45
-44 126 -25 4 1 28 2 54 2 l47 0 -79 49 c-44 27 -98 68 -120 90 l-39 41 451 0
452 0 -6 -34 c-5 -30 -1 -37 41 -71 73 -62 69 -85 -15 -91 -29 -2 -55 -8 -58
-13 -3 -5 -40 -183 -80 -395 l-75 -386 -1024 -2 -1025 -3 -143 -725 c-79 -399
-143 -731 -144 -737 0 -10 316 -13 1550 -13 1161 0 1550 -3 1550 -11 0 -14
-179 -946 -186 -971 -5 -17 -119 -18 -2201 -18 l-2195 0 5 23 c3 12 110 557
237 1212 126 655 233 1202 236 1218 l6 27 638 0 c401 0 641 4 645 10 7 11 13
98 19 280 5 151 25 230 77 315 16 28 28 41 25 30 -16 -61 -97 -498 -94 -507 2
-6 44 59 92 143 81 140 113 189 171 258 39 46 132 106 265 172 74 37 154 81
178 98 54 40 102 114 102 158 l0 32 -126 3 -126 3 41 51 c23 29 41 55 41 59 0
4 14 24 30 45 17 21 30 49 30 63 0 19 5 25 25 25 14 0 25 -6 25 -13z m-4273
-142 c-3 -10 -5 -4 -5 12 0 17 2 24 5 18 2 -7 2 -21 0 -30z m10 -85 c-3 -8 -6
-5 -6 6 -1 11 2 17 5 13 3 -3 4 -12 1 -19z m10 -80 c-3 -8 -6 -5 -6 6 -1 11 2
17 5 13 3 -3 4 -12 1 -19z m678 -296 c-14 -61 -25 -120 -25 -131 0 -12 -5 -21
-11 -21 -9 0 -10 25 -6 90 5 70 13 104 34 147 16 31 29 50 31 41 2 -8 -9 -65
-23 -126z m-291 -80 c53 -95 96 -176 96 -178 0 -3 25 -48 57 -100 55 -93 68
-143 45 -166 -14 -14 -104 81 -130 136 -26 54 -27 66 -7 66 23 0 19 15 -31
108 -54 102 -152 336 -130 311 2 -2 47 -82 100 -177z m-312 -63 c-12 -11 -22
-16 -22 -12 0 4 -5 1 -10 -7 -8 -12 -10 -9 -10 12 0 15 -4 29 -9 32 -10 7 -2
56 10 56 5 0 9 12 9 28 0 22 5 17 27 -31 l26 -58 -21 -20z m6 -116 c6 -18 9
-33 7 -33 -6 0 -31 51 -40 80 -7 24 -6 24 8 5 7 -11 19 -35 25 -52z m146 -219
c37 -74 59 -200 51 -284 -3 -36 -24 -139 -47 -230 -49 -199 -49 -264 1 -397
33 -89 33 -113 1 -37 -47 109 -62 171 -69 289 -4 66 -5 122 -2 125 11 9 38 72
85 198 33 89 10 260 -51 369 -14 26 -20 42 -11 36 8 -7 27 -38 42 -69z m172
-301 c-4 -62 -17 -149 -31 -203 -14 -52 -28 -135 -32 -185 l-6 -90 -14 50
c-18 64 -11 137 26 284 16 64 35 146 41 184 7 37 15 67 18 67 3 0 2 -48 -2
-107z m106 0 c-47 -92 -113 -357 -112 -452 1 -20 7 -70 14 -111 8 -41 12 -76
11 -78 -2 -2 -16 34 -31 80 -41 119 -40 218 5 348 31 92 118 266 128 257 2 -3
-4 -22 -15 -44z m27 -59 c-22 -50 -57 -167 -80 -264 -7 -30 -13 -94 -13 -142
-1 -96 -11 -115 -22 -42 -17 114 37 349 107 468 29 50 34 39 8 -20z m61 -18
c0 -7 -11 -38 -25 -68 -14 -30 -39 -108 -56 -174 -26 -97 -32 -140 -33 -234
-1 -110 -1 -112 -13 -65 -21 92 -16 190 17 313 33 121 55 183 78 220 16 25 32
29 32 8z m6724 -216 c0 -74 -6 -160 -13 -191 -13 -62 -56 -168 -85 -211 -23
-35 -102 -93 -152 -113 l-39 -16 23 20 c12 10 22 23 22 29 0 5 14 26 30 47 17
21 30 46 30 57 0 11 4 27 10 37 5 10 14 47 20 83 9 60 30 116 81 222 18 39 32
99 45 201 l7 50 10 -40 c6 -22 11 -101 11 -175z m-7046 5 c-5 -33 -8 -90 -5
-127 5 -80 -9 -82 -19 -2 -7 62 16 208 31 192 2 -2 -1 -30 -7 -63z m364 -206
c-3 -40 3 -132 13 -206 19 -148 18 -195 -15 -408 -12 -79 -20 -169 -18 -207 5
-93 -9 -86 -17 8 -8 83 -6 106 25 279 23 134 25 250 4 377 -17 102 -17 155 -3
197 6 17 12 31 13 31 1 0 0 -32 -2 -71z m-125 9 c-3 -8 -6 -5 -6 6 -1 11 2 17
5 13 3 -3 4 -12 1 -19z m159 0 c-3 -13 -6 -54 -7 -93 -1 -66 -2 -68 -11 -32
-12 43 -2 147 14 147 6 0 8 -10 4 -22z m-169 -70 c-2 -13 -4 -5 -4 17 -1 22 1
32 4 23 2 -10 2 -28 0 -40z m113 -98 c20 -207 17 -298 -16 -449 -9 -41 -20
-108 -24 -150 l-7 -76 -2 95 c0 55 7 146 19 215 22 133 25 265 9 380 -5 41 -7
86 -3 98 9 28 10 25 24 -113z m-173 68 c-3 -8 -6 -5 -6 6 -1 11 2 17 5 13 3
-3 4 -12 1 -19z m-16 -101 c-10 -9 -11 -8 -5 6 3 10 9 15 12 12 3 -3 0 -11 -7
-18z m66 -19 c-3 -7 -5 -2 -5 12 0 14 2 19 5 13 2 -7 2 -19 0 -25z m-130 -50
c-3 -8 -6 -5 -6 6 -1 11 2 17 5 13 3 -3 4 -12 1 -19z m140 -10 c-3 -7 -5 -2
-5 12 0 14 2 19 5 13 2 -7 2 -19 0 -25z m-50 -10 c-3 -8 -6 -5 -6 6 -1 11 2
17 5 13 3 -3 4 -12 1 -19z m-148 -47 c1 -35 -5 -22 -12 24 -5 28 -4 34 3 20 5
-11 9 -31 9 -44z m378 37 c-3 -8 -6 -5 -6 6 -1 11 2 17 5 13 3 -3 4 -12 1 -19z
m-170 -30 c-3 -7 -5 -2 -5 12 0 14 2 19 5 13 2 -7 2 -19 0 -25z m-48 -173 c-4
-38 -31 -160 -59 -270 -48 -186 -51 -206 -46 -285 7 -102 28 -203 55 -265 17
-39 24 -45 51 -45 77 0 120 44 139 143 9 42 9 42 9 7 2 -106 -88 -217 -158
-195 -30 9 -25 -17 9 -54 23 -25 37 -31 69 -31 53 0 88 29 123 104 38 79 39
156 3 285 -30 111 -26 134 6 29 35 -115 51 -206 44 -246 -16 -87 -96 -189
-170 -218 -35 -13 -44 -22 -44 -40 0 -49 67 -21 159 65 37 35 50 34 34 -2 -30
-66 -134 -147 -189 -147 -26 0 -33 -5 -38 -26 -9 -34 9 -117 36 -168 l20 -39
-25 7 c-16 4 -27 1 -30 -7 -6 -17 -47 71 -47 102 -1 14 -7 51 -15 81 l-14 55
4 -65 c3 -36 7 -85 10 -110 4 -40 4 -42 -5 -15 -6 17 -17 98 -25 180 -14 139
-32 244 -69 405 -24 104 -35 188 -37 288 -2 51 -6 95 -11 98 -4 3 -8 22 -7 42
0 32 1 34 9 15 5 -13 12 -23 16 -23 3 0 4 10 0 23 -3 13 11 74 36 152 22 72
47 155 54 185 l13 55 -5 -60 c-3 -33 -22 -123 -41 -200 -46 -187 -54 -334 -24
-484 11 -57 25 -109 32 -117 6 -7 19 -39 29 -71 20 -60 28 -45 10 17 -29 96
-53 272 -53 375 1 98 6 131 48 295 26 102 52 205 57 230 5 25 13 53 18 62 6
10 11 30 11 45 1 16 5 1 9 -32 4 -33 4 -91 -1 -130z m-309 -72 c-11 -43 -27
-103 -35 -133 -8 -30 -18 -85 -22 -122 -8 -91 -21 -87 -17 5 5 108 12 152 39
262 13 55 30 127 37 160 l13 60 3 -77 c2 -53 -3 -101 -18 -155z m77 205 c-3
-8 -6 -5 -6 6 -1 11 2 17 5 13 3 -3 4 -12 1 -19z m460 -30 c-3 -7 -5 -2 -5 12
0 14 2 19 5 13 2 -7 2 -19 0 -25z m-447 -21 c0 -5 -4 -5 -10 -2 -5 3 -10 14
-10 23 0 15 2 15 10 2 5 -8 10 -19 10 -23z m430 -110 c-17 -96 -24 -77 -8 24
7 45 15 74 17 63 2 -10 -2 -49 -9 -87z m-443 -4 c-2 -16 -4 -5 -4 22 0 28 2
40 4 28 2 -13 2 -35 0 -50z m8602 5 c0 -26 -2 -29 -8 -13 -8 19 -8 19 -19 0
-15 -26 -15 -13 0 20 16 35 28 31 27 -7z m-8644 -141 c-10 -56 -22 -111 -27
-121 -6 -11 -12 -78 -15 -150 -2 -72 -6 -132 -8 -134 -2 -2 -4 45 -4 104 0 81
7 148 29 261 17 84 31 163 31 175 2 18 3 17 6 -5 3 -16 -3 -74 -12 -130z m312
51 c-4 -46 -22 -144 -41 -219 -20 -74 -42 -171 -50 -215 -14 -75 -14 -77 -15
-29 -1 66 22 195 64 359 19 74 35 146 35 160 0 14 3 26 6 26 4 0 4 -37 1 -82z
m50 -130 c-2 -35 -3 -7 -3 62 0 69 1 97 3 63 2 -35 2 -91 0 -125z m-330 150
c-3 -8 -6 -5 -6 6 -1 11 2 17 5 13 3 -3 4 -12 1 -19z m430 -40 c-3 -7 -5 -2
-5 12 0 14 2 19 5 13 2 -7 2 -19 0 -25z m-10 -50 c-3 -8 -6 -5 -6 6 -1 11 2
17 5 13 3 -3 4 -12 1 -19z m-90 -200 c-3 -8 -6 -5 -6 6 -1 11 2 17 5 13 3 -3
4 -12 1 -19z m-310 -50 c-3 -8 -6 -5 -6 6 -1 11 2 17 5 13 3 -3 4 -12 1 -19z
m380 0 c-3 -8 -6 -5 -6 6 -1 11 2 17 5 13 3 -3 4 -12 1 -19z m-75 -71 c-4 -90
-30 -238 -48 -264 -37 -57 -34 -5 12 187 13 58 24 116 24 129 0 13 3 21 7 17
4 -4 7 -35 5 -69z m-305 31 c-3 -8 -6 -5 -6 6 -1 11 2 17 5 13 3 -3 4 -12 1
-19z m390 -10 c-3 -8 -6 -5 -6 6 -1 11 2 17 5 13 3 -3 4 -12 1 -19z m359 -20
c-7 -37 -61 -123 -120 -189 -45 -51 -35 -29 38 85 29 44 58 96 65 114 17 40
26 35 17 -10z m-839 -130 c-3 -7 -5 -2 -5 12 0 14 2 19 5 13 2 -7 2 -19 0 -25z
m43 -168 c0 -5 -2 -10 -4 -10 -3 0 -8 5 -11 10 -3 6 -1 10 4 10 6 0 11 -4 11
-10z m910 -168 c0 -15 -67 -85 -140 -147 -120 -100 -255 -175 -316 -175 -52 0
-20 33 81 85 55 28 130 72 167 98 37 26 69 47 72 47 3 0 14 7 23 15 28 22 108
84 111 84 1 1 2 -2 2 -7z m-344 -327 c-11 -8 -24 -15 -29 -15 -5 0 -22 -9 -39
-21 -16 -12 -32 -19 -34 -16 -3 3 7 13 23 23 15 9 37 23 48 30 29 19 56 18 31
-1z m-116 -64 c0 -9 -34 -21 -60 -20 -8 0 -1 6 15 14 37 16 45 18 45 6z m133
-38 c-7 -2 -21 -2 -30 0 -10 3 -4 5 12 5 17 0 24 -2 18 -5z m-60 -20 c-7 -2
-19 -2 -25 0 -7 3 -2 5 12 5 14 0 19 -2 13 -5z m-76 -19 c-3 -3 -12 -4 -19 -1
-8 3 -5 6 6 6 11 1 17 -2 13 -5z m3408 -43 c3 -16 13 -35 21 -42 16 -13 19
-72 4 -100 -6 -10 -20 -19 -32 -19 -17 0 -19 2 -8 16 16 18 16 103 1 132 -13
25 -15 55 -2 47 5 -3 12 -18 16 -34z m-279 -45 c-3 -11 -17 -29 -30 -38 -23
-17 -24 -17 -19 2 3 11 9 17 13 15 5 -3 7 7 5 22 -1 16 5 36 14 47 15 18 16
18 19 -4 2 -12 1 -32 -2 -44z m-970 -125 c-4 -5 2 -7 12 -4 10 2 26 -4 36 -15
17 -19 17 -20 -3 -27 -12 -3 -26 -3 -33 1 -9 6 -9 3 1 -9 7 -9 9 -17 4 -17
-19 0 -66 -57 -84 -101 -11 -24 -18 -35 -17 -24 1 11 -1 25 -5 31 -4 7 0 28 8
48 8 19 15 45 15 58 0 24 37 66 58 67 7 1 11 -3 8 -8z m5622 -86 c32 -71 26
-212 -12 -260 l-23 -29 -13 25 c-30 55 -39 125 -24 195 19 94 48 122 72 69z
m-3673 -48 c40 -34 49 -73 25 -102 -18 -22 -76 -35 -157 -35 -71 0 -95 12 -52
25 27 9 99 73 99 89 0 15 29 56 39 56 4 0 25 -15 46 -33z m-1615 -481 c0 -2
-7 -7 -16 -10 -8 -3 -12 -2 -9 4 6 10 25 14 25 6z m50 -37 c0 -6 12 -8 33 -5
l32 6 -30 -13 c-53 -21 -91 -49 -108 -76 l-16 -26 2 37 c2 23 12 47 27 62 24
26 60 35 60 15z m148 4 c-10 -2 -26 -2 -35 0 -10 3 -2 5 17 5 19 0 27 -2 18
-5z m85 -10 c-7 -2 -21 -2 -30 0 -10 3 -4 5 12 5 17 0 24 -2 18 -5z m47 -44
c89 -16 379 -118 340 -119 -8 0 -40 10 -70 21 -30 12 -68 25 -85 29 -16 5 -62
18 -101 29 -43 12 -115 22 -183 26 -121 5 -162 -4 -209 -48 l-24 -22 12 26
c13 27 59 56 112 69 36 9 122 5 208 -11z m214 -28 c4 -5 -3 -7 -14 -4 -23 6
-26 13 -6 13 8 0 17 -4 20 -9z m1496 -81 c-62 -44 -103 -55 -55 -14 30 25 81
53 100 54 5 0 -15 -18 -45 -40z m-1323 14 c-3 -3 -12 -4 -19 -1 -8 3 -5 6 6 6
11 1 17 -2 13 -5z m60 -20 c-3 -3 -12 -4 -19 -1 -8 3 -5 6 6 6 11 1 17 -2 13
-5z m-41 -58 c38 -13 95 -31 127 -41 32 -9 56 -19 54 -22 -6 -5 -187 51 -232
71 -46 22 -26 18 51 -8z m99 -71 c28 -7 42 -14 32 -14 -23 -1 -127 28 -127 36
0 3 10 2 23 -1 12 -4 45 -13 72 -21z m515 0 l65 -15 -59 6 c-33 3 -69 10 -80
14 -32 13 1 11 74 -5z m-347 -12 c-7 -2 -19 -2 -25 0 -7 3 -2 5 12 5 14 0 19
-2 13 -5z m444 -9 c-3 -3 -12 -4 -19 -1 -8 3 -5 6 6 6 11 1 17 -2 13 -5z
m-472 -14 c25 -11 -1 -11 -35 0 -20 6 -21 8 -5 8 11 0 29 -3 40 -8z m737 -19
c76 -11 146 -18 155 -15 10 2 8 -1 -5 -7 -18 -10 -52 -8 -165 6 -78 9 -164 24
-192 31 l-50 14 60 -4 c33 -3 122 -14 197 -25z m1274 -7 c-4 -9 -9 -15 -11
-12 -3 3 -3 13 1 22 4 9 9 15 11 12 3 -3 3 -13 -1 -22z m-1911 6 c27 -7 27 -8
5 -8 -14 0 -38 4 -55 8 -27 7 -27 8 -5 8 14 0 39 -4 55 -8z m130 -20 c13 -6 2
-7 -30 -3 -27 3 -52 7 -54 9 -9 8 65 2 84 -6z m182 -116 c-3 -3 -12 -4 -19 -1
-8 3 -5 6 6 6 11 1 17 -2 13 -5z m-3543 -116 c9 -12 14 -24 12 -26 -7 -7 -46
23 -46 35 0 20 17 15 34 -9z m3822 6 c48 -16 79 -34 58 -34 -21 0 -148 49
-128 49 11 1 43 -6 70 -15z m-808 -121 c5 -18 -23 -16 -39 3 -11 14 -10 15 11
12 13 -1 25 -9 28 -15z"/>
<path d="M2961 9520 c-160 -41 -174 -47 -206 -80 -24 -25 -27 -34 -20 -67 9
-49 30 -79 140 -194 117 -123 142 -174 195 -411 12 -54 25 -100 29 -102 19
-12 31 99 21 189 -15 129 -48 193 -158 307 -49 51 -97 107 -106 125 -24 47
-21 90 9 118 29 26 146 75 243 101 37 10 62 22 62 30 0 23 -83 16 -209 -16z"/>
<path d="M3266 8678 c-2 -18 -9 -66 -15 -107 -6 -41 -9 -76 -6 -79 11 -11 28
59 32 136 4 81 -2 112 -11 50z"/>
<path d="M3202 8438 c-6 -6 -12 -18 -12 -25 0 -7 -3 -13 -7 -13 -5 0 -19 -16
-32 -35 -13 -19 -31 -44 -41 -55 -10 -12 -33 -40 -52 -63 -18 -23 -81 -91
-140 -152 -103 -104 -120 -132 -100 -161 26 -39 149 -15 211 41 39 35 121 181
121 215 0 10 16 69 35 131 36 114 40 140 17 117z"/>
<path d="M7616 7707 c-48 -46 -53 -74 -25 -152 12 -36 26 -62 29 -58 6 7 50
215 50 236 0 15 -20 6 -54 -26z"/>
<path d="M3567 6885 c-22 -47 -22 -111 1 -139 20 -26 19 -27 78 54 23 30 48
61 57 69 25 20 21 26 -24 28 -23 0 -46 6 -52 12 -20 20 -43 11 -60 -24z"/>
<path d="M4416 6413 c-6 -14 -5 -15 5 -6 7 7 10 15 7 18 -3 3 -9 -2 -12 -12z"/>
<path d="M4070 6049 c0 -5 5 -7 10 -4 6 3 10 8 10 11 0 2 -4 4 -10 4 -5 0 -10
-5 -10 -11z"/>
<path d="M4027 6014 c-16 -14 -22 -24 -14 -24 15 0 53 37 46 44 -2 2 -17 -7
-32 -20z"/>
<path d="M3838 5834 c-59 -62 -67 -74 -45 -74 18 0 107 98 107 117 0 20 -5 17
-62 -43z"/>
<path d="M3086 5824 c-9 -22 -7 -64 2 -64 4 0 7 18 7 40 0 45 0 47 -9 24z"/>
<path d="M8320 3965 c0 -5 5 -17 10 -25 5 -8 10 -10 10 -5 0 6 -5 17 -10 25
-5 8 -10 11 -10 5z"/>
<path d="M6219 5730 c-41 -7 -153 -46 -204 -71 -38 -19 -56 -37 -61 -62 -3
-21 0 -26 23 -31 36 -7 108 -9 265 -7 l126 1 11 50 c17 79 15 89 -21 104 -49
20 -88 25 -139 16z"/>
<path d="M5040 5230 c0 -6 7 -10 15 -10 8 0 15 2 15 4 0 2 -7 6 -15 10 -8 3
-15 1 -15 -4z"/>
<path d="M4978 5165 c-6 -14 -15 -25 -20 -25 -4 0 -8 -5 -8 -10 0 -15 49 22
50 37 0 6 6 14 13 16 7 3 5 6 -6 6 -9 1 -23 -10 -29 -24z"/>
<path d="M1024 3110 c0 -52 1 -74 3 -47 2 26 2 68 0 95 -2 26 -3 4 -3 -48z"/>
<path d="M1031 2974 c0 -11 3 -14 6 -6 3 7 2 16 -1 19 -3 4 -6 -2 -5 -13z"/>
<path d="M4863 9823 c9 -2 25 -2 35 0 9 3 1 5 -18 5 -19 0 -27 -2 -17 -5z"/>
<path d="M8770 9682 c0 -4 12 -9 27 -10 14 -1 23 1 19 5 -10 10 -46 14 -46 5z"/>
<path d="M7744 9652 c3 -6 19 -13 34 -17 29 -6 77 -44 84 -67 4 -10 10 -10 32
0 38 17 29 33 -35 58 -69 28 -124 40 -115 26z"/>
<path d="M1005 9590 c-49 -50 -50 -51 -53 -125 -3 -52 1 -91 13 -129 23 -74
16 -127 -28 -214 -20 -38 -43 -93 -53 -121 -18 -55 -27 -62 -44 -31 -14 27
-23 20 -49 -35 -19 -40 -20 -50 -9 -73 9 -19 22 -28 43 -30 86 -7 117 -15 144
-38 36 -30 48 -77 30 -111 -15 -28 -74 -67 -88 -58 -18 11 -53 -34 -45 -58 4
-12 7 -31 6 -42 -1 -11 6 -35 14 -53 19 -40 11 -55 -8 -17 -13 23 -16 25 -27
11 -8 -9 -16 -36 -18 -61 -4 -35 0 -53 19 -87 37 -63 59 -139 60 -205 1 -50
-4 -64 -33 -106 -19 -27 -40 -60 -47 -73 -16 -30 -17 -180 -1 -239 6 -22 13
-50 16 -62 6 -27 33 -53 33 -32 0 10 15 -6 34 -37 1 -1 15 -5 31 -8 25 -6 36
-2 59 21 47 47 86 189 86 312 0 48 3 62 11 54 8 -8 10 -50 7 -130 -5 -137 -25
-194 -99 -277 -37 -42 -40 -48 -19 -41 36 11 69 36 126 97 75 79 98 128 96
208 -2 124 -59 334 -138 507 -39 87 -38 83 -20 83 13 0 13 5 -1 38 -8 20 -21
44 -29 53 -20 22 -17 85 6 152 32 90 27 124 -26 203 -26 38 -60 81 -77 95 -26
23 -29 31 -25 65 6 42 52 124 139 245 105 148 125 234 80 342 -31 73 -50 74
-116 7z m105 -1608 c0 -15 -2 -15 -10 -2 -13 20 -13 33 0 25 6 -3 10 -14 10
-23z"/>
<path d="M852 9338 c-7 -7 -12 -29 -12 -50 0 -43 37 -88 72 -88 35 0 51 87 22
128 -17 24 -62 30 -82 10z"/>
<path d="M1582 9285 c0 -16 2 -22 5 -12 2 9 2 23 0 30 -3 6 -5 -1 -5 -18z"/>
<path d="M9455 8890 c3 -5 10 -10 16 -10 5 0 9 5 9 10 0 6 -7 10 -16 10 -8 0
-12 -4 -9 -10z"/>
<path d="M955 8740 c3 -5 8 -10 11 -10 2 0 4 5 4 10 0 6 -5 10 -11 10 -5 0 -7
-4 -4 -10z"/>
<path d="M856 7411 c-4 -5 3 -7 14 -4 23 6 26 13 6 13 -8 0 -17 -4 -20 -9z"/>
<path d="M642 6015 c0 -16 2 -22 5 -12 2 9 2 23 0 30 -3 6 -5 -1 -5 -18z"/>
<path d="M750 4888 c0 -7 10 -52 22 -102 20 -80 23 -86 30 -60 5 16 5 49 1 74
-4 25 -7 50 -8 55 0 10 -31 45 -40 45 -3 0 -5 -5 -5 -12z"/>
<path d="M851 2590 c-1 -41 -3 -102 -5 -135 -1 -33 0 -73 2 -90 6 -30 6 -30
13 -5 10 35 10 217 0 265 -8 36 -9 32 -10 -35z"/>
<path d="M5368 943 c7 -3 16 -2 19 1 4 3 -2 6 -13 5 -11 0 -14 -3 -6 -6z"/>
<path d="M5378 913 c6 -2 18 -2 25 0 6 3 1 5 -13 5 -14 0 -19 -2 -12 -5z"/>
<path d="M5278 903 c7 -3 16 -2 19 1 4 3 -2 6 -13 5 -11 0 -14 -3 -6 -6z"/>
<path d="M5323 893 c9 -2 23 -2 30 0 6 3 -1 5 -18 5 -16 0 -22 -2 -12 -5z"/>
<path d="M3170 730 c-8 -5 -10 -10 -3 -10 6 0 9 -9 6 -22 -4 -18 -3 -20 6 -12
7 7 11 21 9 33 -2 15 -7 18 -18 11z"/>
<path d="M3208 717 c3 -10 -1 -23 -9 -28 -27 -16 4 -30 47 -20 21 5 34 9 27
10 -7 1 -10 8 -7 16 4 9 0 15 -9 15 -9 0 -19 5 -23 12 -5 7 -3 8 6 3 8 -5 11
-4 6 3 -3 6 -15 10 -25 9 -13 -1 -17 -7 -13 -20z"/>
<path d="M7903 623 c15 -2 37 -2 50 0 12 2 0 4 -28 4 -27 0 -38 -2 -22 -4z"/>
<path d="M4020 600 c0 -5 5 -10 10 -10 6 0 10 5 10 10 0 6 -4 10 -10 10 -5 0
-10 -4 -10 -10z"/>
<path d="M6693 593 c9 -2 25 -2 35 0 9 3 1 5 -18 5 -19 0 -27 -2 -17 -5z"/>
</g>
</svg>
